PathFileType	4	(X/Y/Z)	OpenSim_Sub02_CSStiffKnee_Accel.trc
DataRate	CameraRate	NumFrames	NumMarkers	Units	OrigDataRate	OrigDataStartFrame	OrigNumFrames
100	100	41	8	m	100	4307	6891
Frame#	Time	torso_imu_offset_imu	pelvis_imu_offset_imu	tibia_r_imu_offset_imu	femur_r_imu_offset_imu	tibia_l_imu_offset_imu	femur_l_imu_offset_imu	toes_r_imu_offset_imu	toes_l_imu_offset_imu
				X1	Y1	Z1	X2	Y2	Z2	X3	Y3	Z3	X4	Y4	Z4	X5	Y5	Z5	X6	Y6	Z6	X7	Y7	Z7	X8		Y8	Z8	

4307	43.06000000	9.17743164	-1.74073348	6.77502727	9.92302297	0.49527842	1.92528855	10.43711150	0.70438577	2.65466796	9.72795963	-2.59677791	0.57505320	12.34122734	-9.62348874	2.94649885	9.04682833	1.22062674	-0.53866764	5.68412973	0.29248709	8.79950511	36.70108867	10.70887618	16.17077018
4308	43.07000000	9.56402818	-1.72454875	7.09931102	10.46697908	0.11898682	1.80877884	10.68242478	0.16613512	2.55571908	9.76406757	-2.86581603	0.52066069	12.94600087	-9.87511735	4.95651889	9.61890534	0.98073539	0.13038694	5.72164039	0.17965712	8.88528369	12.33129277	-0.01505343	17.57842163
4309	43.08000000	9.75608783	-1.57014961	7.39695877	10.77048577	-0.06454705	1.74771085	11.02923364	-0.40803205	2.77869055	10.04246470	-2.87687847	0.66170827	8.56146459	-11.68018188	5.04223036	10.39496854	-0.13585089	0.35767785	5.80608413	-0.04267433	8.78145498	-12.53247172	-9.57154486	5.38936770
4310	43.09000000	9.57816895	-1.43921365	7.67960027	10.98854084	-0.02401708	2.16500115	11.34833037	-1.08087057	2.97378098	9.99313003	-2.65022589	1.12174489	1.45231607	-9.15079176	4.08466273	11.34809969	-1.98045235	-0.17550825	5.78668861	0.16345229	9.06014611	8.41547462	1.68073139	17.21856852
4311	43.10000000	9.36077618	-1.29203666	8.06510359	10.98008525	-0.11902287	2.49999144	11.58985686	-1.81135123	2.76458611	9.68651412	-2.20924587	1.52944358	5.05777740	-0.62453165	7.27078072	12.56867487	-3.92249406	-1.14031705	5.57386818	-0.04091682	9.31886585	5.19465864	3.89716448	11.63039017
4312	43.11000000	9.21220410	-0.92139956	8.49834105	11.01067985	-0.07108507	2.95203714	12.10677997	-2.36418434	2.92741883	9.56211554	-1.91943462	1.63160625	10.83453522	1.48847276	5.87851300	12.63760191	-5.14938344	-2.63131408	5.48596683	-0.46252658	9.70689548	3.53855586	-0.49906909	11.81875360
4313	43.12000000	9.08404299	-0.51249464	8.77807928	10.98651169	-0.00735328	3.53862884	12.86937044	-2.57104705	3.27237624	9.70986124	-1.81342313	1.63103850	13.08757607	2.48201413	2.66283981	12.01753467	-4.92465559	-3.70938311	4.99303793	-0.95920608	9.94923292	4.74019058	1.39495420	12.47369399
4314	43.13000000	8.81312480	-0.31147998	8.84717377	10.60303707	-0.19799664	4.17893222	13.85371576	-2.24082242	2.97323820	9.57535728	-1.34696662	1.52268979	11.54173251	2.01211463	4.13678616	11.41268472	-3.12816797	-3.54850384	5.25631548	-0.84455495	9.79351464	5.97040525	1.04750394	11.76377045
4315	43.14000000	8.35275075	-0.11143600	8.92633232	9.96934729	-0.52741123	4.72720041	14.68569033	-1.68219226	2.09880064	9.29724682	-0.87669625	1.72203333	8.59498953	-4.42775517	3.62748436	10.83906603	-0.83666758	-2.10812722	4.76182913	-1.01800612	10.10333063	4.95321186	0.29183937	11.68996892
4316	43.15000000	7.86531322	0.30266130	8.93947594	9.17043396	-0.92026866	5.00445538	14.94636434	-1.35518509	0.43983085	9.25164343	-0.30972078	2.29741190	6.34023364	-10.56696869	-0.06261954	9.57471096	0.79918880	-0.56967156	5.54863948	-1.85472799	10.27216945	4.43209965	0.75442184	11.78129561
4317	43.16000000	7.45360666	0.68756914	8.61724024	8.50526490	-1.21033795	5.15776382	14.27803264	-0.47577890	0.95942508	9.60263691	0.23790171	2.76126195	7.29499404	-10.83446941	0.68283858	8.82772452	1.48431315	-0.30183917	7.41112835	-2.22449183	10.04971289	4.30317259	0.36907411	11.95505100
4318	43.17000000	7.05409440	0.89816283	8.18540380	8.00310355	-1.35977093	5.12310320	13.15709172	1.61154244	2.31234821	10.14188937	0.64362258	3.09822490	9.05045026	-6.57917488	0.47490814	8.59109077	1.09965443	-1.02449624	9.46394517	-2.36510569	10.08564823	3.96193608	0.70239718	11.79060518
4319	43.18000000	6.86363276	0.90342787	7.73372182	7.80513973	-1.19123025	5.03596805	11.63097139	3.59075765	2.71450961	10.63013096	1.27114725	3.22546277	10.93488901	-3.52257965	-0.26976313	8.08995545	0.15344039	-1.77693524	12.24568739	-2.05690822	10.07373626	4.20700874	0.52366317	11.60116613
4320	43.19000000	6.95418164	0.93779927	7.38850010	7.92308417	-0.89565215	5.00553784	9.97495046	5.00485657	2.84622722	11.22709640	1.94134049	3.07851270	10.88206385	-2.01082224	0.41735338	8.55313347	-0.89758832	-2.40947552	17.18188207	2.00118752	11.59005537	4.25875690	1.17758557	11.76331393
4321	43.20000000	7.34701108	1.00712904	7.28149686	8.38671896	-0.63865251	4.84286762	8.56320278	6.39789149	3.12174041	11.87869699	2.24746765	2.79199167	10.24761672	-0.59537185	0.88696998	9.04720669	-1.94040525	-3.00292615	17.02950659	2.88915093	10.60516257	4.29822020	1.46982119	11.74012379
4322	43.21000000	7.96267304	1.03731242	7.37730988	8.96897321	-0.56149009	4.51428379	7.22686049	8.75687376	2.23347197	12.55695563	2.06543438	2.49146328	9.73308218	0.34482797	0.60008055	9.17269293	-2.58611313	-3.47055512	13.19449279	0.98371011	15.82483996	3.64200910	1.24799479	11.92124513
4323	43.22000000	8.57556674	0.98170904	7.37659814	9.51796167	-0.73514663	4.29970875	6.12526320	11.91992092	-0.14334146	12.89303520	1.15366951	2.21703564	9.62852100	-0.28732918	0.99632560	9.57562489	-2.45891056	-4.18885034	9.27683262	-2.30967978	25.88992466	4.03465631	1.58409270	11.87746137
4324	43.23000000	9.05053965	0.83882642	7.46512924	10.07802063	-0.95800428	4.23432666	5.59470915	13.42775736	-0.76999862	12.75294717	-0.32802413	1.78426685	10.04756656	-1.35879973	0.43767081	9.14068019	-1.97775029	-4.02925240	2.56579791	-7.01823362	22.06466066	4.24737760	1.21400744	11.82357495
4325	43.24000000	9.55206262	0.59750144	7.69776303	10.60188179	-0.98561676	4.08977162	5.02445751	12.87745827	0.38777286	12.66350004	-1.53262454	1.32710528	10.80661017	-2.73302327	0.50053943	9.38116131	-1.43545875	-3.62196437	3.83794169	-7.27672841	20.51714599	4.30509596	0.97606671	11.80458488
4326	43.25000000	10.04853556	0.27609301	8.04839434	11.00117590	-0.82456088	3.88377253	3.31889317	12.21697612	2.38996437	12.57400910	-2.25281398	1.30810547	10.85623944	-4.13904868	0.38088776	9.98580418	-0.58410412	-3.37091211	-2.74454881	-7.81475844	14.76969392	4.12315339	1.16226484	11.91250358
4327	43.26000000	10.21491135	-0.10262589	8.33197312	11.10741872	-0.60175270	3.77552356	1.46039853	12.37220720	3.81548551	12.23667725	-2.87523829	1.52213163	10.16025487	-5.34771309	1.55498172	10.51914650	-0.09896979	-2.97780161	-2.28551012	-6.20770684	12.66801537	3.99940894	1.15801766	12.00886302
4328	43.27000000	9.98197512	-0.50578999	8.44469702	10.98062785	-0.47797383	3.65703626	1.46790177	11.27597387	4.60208686	11.80689142	-3.56155873	1.78958377	9.70693673	-5.48700250	1.32082010	10.86957781	0.17603733	-2.75265122	-2.81787247	-6.08327249	11.28079002	4.28446798	0.92750423	11.84355749
4329	43.28000000	9.58181782	-0.69374906	8.49709100	10.89529112	-0.53076557	3.52881203	2.92185988	8.16576266	4.59226208	10.98123312	-4.12522391	2.13269852	9.74496687	-5.33491733	1.93243385	10.79347108	-0.11776961	-2.65663831	-2.60797724	-6.81506800	10.23766659	4.31981915	0.92268120	11.86528566
4330	43.29000000	9.19300651	-0.64327592	8.53280530	10.68978974	-0.75644539	3.25873364	4.61525771	4.14652203	4.21403389	10.17242903	-4.33383999	2.33505046	9.73294912	-4.74501747	2.14898213	10.46344363	-0.94696011	-2.49608948	-2.26233305	-7.02569244	9.79012075	4.51360959	0.86458294	11.73467248
4331	43.30000000	8.97023437	-0.53761352	8.38494137	10.24678496	-0.98527696	2.96205413	5.36789302	0.39420751	4.24043040	9.52265932	-4.26135216	2.38793512	9.86862594	-4.13200119	2.33495093	10.52654195	-1.32512567	-2.45512693	-1.06154929	-5.96643303	10.04656243	4.07192188	0.86253303	11.84779232
4332	43.31000000	8.67620972	-0.43136586	8.31004204	9.87753563	-1.25914476	2.74270080	5.24389382	-1.64396381	4.64101852	8.91239760	-4.00578613	2.58066360	9.70369649	-4.06083473	2.27003868	10.30028307	-1.82514139	-2.15976934	0.49738439	-4.88078597	10.71132889	4.35646055	1.05994339	11.77949313
4333	43.32000000	8.30454059	-0.20105355	8.15660676	9.62255652	-1.45681897	2.53732433	5.10265536	-1.92617563	5.22143124	8.52120068	-3.89122846	2.78266630	9.29023146	-4.10916562	2.28902175	10.55397730	-1.76106652	-1.97012098	1.56921828	-3.88471495	11.65039632	4.83519734	0.99233401	11.40599643
4334	43.33000000	7.99725406	0.01935445	7.98553131	9.35976859	-1.65396498	2.46939885	5.35993848	-0.69269949	5.37772005	8.22461414	-3.86064161	2.99855146	8.91878135	-4.44544486	2.46713161	10.06013747	-1.42019486	-1.74579344	2.55008391	-2.55722046	12.82681531	4.91484582	1.01728820	11.26901680
4335	43.34000000	7.73799536	0.24436198	7.79379038	9.19178563	-1.68687446	2.43666295	6.04598459	0.77339772	5.26091552	8.05228565	-3.70862083	3.17054391	8.52005310	-4.60006444	1.99392128	9.63929901	-1.16516946	-1.57125904	3.77721706	-1.04759828	13.98125196	5.06146815	1.18138839	11.24102195
4336	43.35000000	7.47968489	0.45205336	7.61336904	8.85364461	-1.85222237	2.36063578	6.43730059	1.61368260	4.84973959	7.80110703	-3.50433478	3.29185369	8.57221987	-4.78887704	1.78869269	9.26414895	-0.82443113	-1.58491034	4.81433918	0.44831479	14.66451659	4.85839297	1.21912029	11.13713947
4337	43.36000000	7.30259479	0.56999147	7.50729574	8.68260463	-1.93300214	2.31491354	6.72820983	1.74480959	4.35952437	7.60343880	-3.24637932	3.30559180	8.48092956	-4.69526824	1.75157407	8.87773460	-0.99751054	-1.54677199	5.51211990	1.93621628	14.73351399	5.16824079	1.43570800	10.97903225
4338	43.37000000	7.20390333	0.68430226	7.48457667	8.47969682	-2.00527785	2.21184129	7.48925929	1.89803359	3.69374658	7.34213011	-2.99281380	3.28775215	8.55424434	-4.43554803	1.42945102	8.70460643	-0.98417837	-1.64109294	6.14952340	3.24516649	14.46469663	5.38574298	1.42844192	10.78843422
4339	43.38000000	7.14838349	0.74201711	7.46254680	8.61215056	-1.87577656	2.05294642	8.25910591	2.24526202	3.06120222	6.94788249	-2.53683882	3.31656139	8.75288223	-4.12961784	1.59096846	8.62130568	-1.12297419	-1.73498406	6.78871632	4.31625665	14.00616844	5.63789872	1.43166621	10.69757241
4340	43.39000000	7.15810813	0.73435978	7.40617709	8.49926207	-1.92013271	1.96807557	8.56125189	2.76451567	3.00534760	6.42357757	-2.19947288	3.42221053	8.80867089	-3.86085557	1.49318676	8.62782548	-1.54128354	-1.76232292	7.56072019	4.69628584	13.47020220	5.24729600	1.50367529	10.80040118
4341	43.40000000	7.08456486	0.72011073	7.12690242	8.58532065	-1.83121235	1.89702021	8.60487648	3.76164792	2.93709607	5.89247188	-1.99551244	3.37926864	8.69790680	-3.95593316	1.60108012	8.44412288	-1.98574440	-1.93575105	8.58832983	4.16047692	12.97566586	5.30476828	1.49153076	10.80772745
4342	43.41000000	7.08332406	0.70284151	7.13602213	8.36706063	-1.86448384	1.86297039	8.81099463	5.16020544	3.01402973	5.52753744	-1.57525581	3.29080961	8.43875513	-4.06631134	1.52964775	8.46696233	-2.53235312	-2.17137632	9.91885034	2.61210677	12.57870114	5.72117734	1.16724808	10.56001975
4343	43.42000000	7.05020879	0.72971309	7.24435845	8.37029600	-1.75109711	1.74428505	8.78699935	6.53796449	3.71656243	5.32500690	-1.75948609	3.18758940	8.53112479	-4.13741220	1.56131627	8.51819080	-3.02458059	-2.40817225	11.45793074	1.15423737	12.26271553	5.81307771	1.09838018	10.47190931
4344	43.43000000	6.94398907	0.81146688	6.93562055	8.05869452	-1.85453098	1.72759720	8.52337635	7.01995629	4.26819385	5.33675088	-2.11559110	3.13868160	8.66589989	-3.92679517	1.59401218	8.57131818	-3.29840642	-2.57760784	12.59051831	0.40423235	11.93363882	5.96812857	0.92888498	10.40648979
4345	43.44000000	6.99393494	0.89477088	7.13287336	7.73214017	-1.68773020	1.85610726	8.25646450	6.37448288	3.72860346	5.40600791	-2.72130257	3.09473417	8.78453290	-3.65222175	1.65010079	8.72083083	-3.25958552	-2.56298466	12.95187058	0.54615410	11.23858764	5.50737125	0.96518361	10.63931334
4346	43.45000000	7.10714634	1.05457554	7.20606669	7.53309894	-1.58910780	1.69012239	8.27585988	5.31026648	2.46548542	5.53554779	-3.67817142	3.27876945	8.78605330	-3.33676275	1.61792135	8.71208832	-2.89360946	-2.41572192	12.92927738	1.86935430	10.38790417	5.84701435	0.84790196	10.47556709
4347	43.46000000	7.21691255	1.19611635	6.83981595	7.64152356	-1.70830891	1.02490121	8.95757721	3.90929265	1.45419552	5.56599652	-4.87032045	3.58450838	8.84343031	-2.95461484	1.51547603	8.71687012	-2.46244961	-2.32864712	13.56188094	2.99511324	9.25693288	6.10741181	0.61193985	10.25147276
